<svg width="46" height="45" viewBox="0 0 46 45" fill="none" xmlns="http://www.w3.org/2000/svg">
<g clip-path="url(#clip0_69_18)">
<path d="M22.625 45C35.0789 45 45.125 34.9539 45.125 22.5C45.125 10.0461 34.9958 0 22.625 0C10.1711 0 0.125 10.0461 0.125 22.5C0.125 34.8708 10.1711 45 22.625 45Z" fill="white"/>
<path d="M39.9774 8.46865C38.3999 8.80075 36.9054 9.21588 35.743 9.46496C32.9202 10.1292 30.3464 12.2048 29.7652 16.107C29.267 19.5941 30.4294 21.0886 29.9312 25.1568C29.0179 32.2971 22.2098 34.7048 19.0548 36.1993C17.2283 37.0295 12.7449 39.0222 9.34082 40.5166C13.077 43.2565 17.6434 44.917 22.708 44.917C35.1619 44.917 45.208 34.8709 45.208 22.417C45.208 17.1033 43.3814 12.2878 40.3095 8.38562C40.1434 8.46865 40.0604 8.46865 39.9774 8.46865Z" fill="url(#paint0_linear_69_18)"/>
<path d="M20.0512 19.179C21.7947 15.4428 21.1305 15.4428 22.4589 11.8727C24.1195 7.3893 29.2671 8.71771 30.6785 8.88376C33.0032 9.21587 33.6674 8.38561 38.566 7.55535C38.815 7.55535 39.0641 7.47232 39.3132 7.47232C35.1619 2.9059 29.184 0 22.542 0C13.6582 0 5.93681 5.23063 2.28367 12.786C9.756 14.6125 17.7265 18.5978 20.0512 19.179ZM15.1527 3.90221C15.8169 3.98524 18.9719 7.97048 19.553 18.0996C19.553 18.0996 15.4848 17.1033 14.5715 15.0277C13.9073 13.2841 14.8206 10.9594 15.1527 3.90221ZM0.125 22.5C0.125 20.6734 0.374077 18.9299 0.706181 17.2694C1.53644 17.9336 2.3667 18.6808 3.27998 19.5941C9.17482 24.9908 18.6398 29.3081 22.1268 25.3229C21.4626 26.1531 19.0549 28.81 14.4885 27.9797L7.26522 38.8561C2.86485 34.7878 0.125 28.976 0.125 22.5Z" fill="url(#paint1_linear_69_18)"/>
</g>
<defs>
<linearGradient id="paint0_linear_69_18" x1="30.6624" y1="13.3577" x2="25.3587" y2="42.5762" gradientUnits="userSpaceOnUse">
<stop stop-color="#FF496A"/>
<stop offset="1" stop-color="#E42648"/>
</linearGradient>
<linearGradient id="paint1_linear_69_18" x1="13.0371" y1="33.8455" x2="24.7635" y2="0.729879" gradientUnits="userSpaceOnUse">
<stop offset="0.00181229" stop-color="#1158F1"/>
<stop offset="1" stop-color="#119BED"/>
</linearGradient>
<clipPath id="clip0_69_18">
<rect width="45" height="45" fill="white" transform="translate(0.125)"/>
</clipPath>
</defs>
</svg>
