<svg width="291" height="45" viewBox="0 0 291 45" fill="none" xmlns="http://www.w3.org/2000/svg">
<g clip-path="url(#clip0_69_22)">
<path d="M56.0452 34.6197C55.3708 34.6197 54.8941 34.4802 54.6149 34.2016C54.3591 33.9228 54.2312 33.4814 54.2312 32.8774V12.7018C54.2312 12.0978 54.3707 11.6564 54.6498 11.3777C54.9289 11.0757 55.3939 10.9247 56.0452 10.9247H64.592C67.8478 10.9247 70.2432 11.61 71.7784 12.9806C73.3132 14.3512 74.0807 16.3954 74.0807 19.1134C74.0807 21.8081 73.3132 23.8407 71.7784 25.2113C70.2666 26.5588 67.8712 27.2325 64.592 27.2325H61.2779V32.8774C61.2779 33.4814 61.1385 33.9228 60.8593 34.2016C60.5802 34.4802 60.1034 34.6197 59.429 34.6197H56.0452ZM64.0339 22.1798C64.9875 22.1798 65.72 21.9243 66.2317 21.4132C66.7664 20.9021 67.034 20.1355 67.034 19.1134C67.034 18.068 66.7664 17.2898 66.2317 16.7787C65.72 16.2677 64.9875 16.0121 64.0339 16.0121H61.2779V22.1798H64.0339Z" fill="white"/>
<path d="M82.3192 35.1423C80.1332 35.1423 78.3773 34.4453 77.0516 33.0517C75.7492 31.6345 75.0981 29.6484 75.0981 27.0929C75.0981 25.1416 75.54 23.4341 76.4236 21.9707C77.3308 20.5072 78.5983 19.3805 80.2262 18.5907C81.8775 17.7776 83.7728 17.3711 85.9124 17.3711C87.68 17.3711 89.2382 17.5686 90.587 17.9635C91.9591 18.3352 93.2149 18.8811 94.3545 19.6012V33.5395C94.3545 33.9809 94.2732 34.2712 94.1102 34.4105C93.9475 34.55 93.6219 34.6197 93.1336 34.6197H89.5753C89.3195 34.6197 89.1218 34.5849 88.9824 34.515C88.8427 34.4223 88.7266 34.2827 88.6335 34.0969L88.1798 33.0517C87.5054 33.7717 86.6916 34.2945 85.738 34.6197C84.8078 34.9681 83.6682 35.1423 82.3192 35.1423ZM84.9357 30.4033C85.8426 30.4033 86.5519 30.1825 87.0635 29.7414C87.5752 29.3 87.831 28.6727 87.831 27.8595V22.4237C87.3893 22.2146 86.831 22.1101 86.1566 22.1101C84.924 22.1101 83.9356 22.5399 83.1914 23.3993C82.4704 24.2588 82.11 25.4668 82.11 27.0233C82.11 29.2767 83.0517 30.4033 84.9357 30.4033Z" fill="white"/>
<path d="M99.2092 34.6197C98.5346 34.6197 98.0578 34.4802 97.7789 34.2016C97.4998 33.9227 97.3604 33.4813 97.3604 32.8773V18.974C97.3604 18.5559 97.4301 18.2771 97.5695 18.1377C97.7323 17.9751 98.0578 17.8938 98.5464 17.8938H102.14C102.418 17.8938 102.628 17.9402 102.767 18.0332C102.93 18.1029 103.023 18.2422 103.046 18.4513L103.221 19.4967C103.872 18.8462 104.721 18.3352 105.767 17.9635C106.837 17.5686 108.023 17.3711 109.326 17.3711C111.209 17.3711 112.733 17.9054 113.896 18.974C115.059 20.0194 115.64 21.5758 115.64 23.6433V32.8773C115.64 33.4813 115.5 33.9227 115.221 34.2016C114.965 34.4802 114.5 34.6197 113.826 34.6197H110.442C109.768 34.6197 109.279 34.4802 108.977 34.2016C108.698 33.9227 108.558 33.4813 108.558 32.8773V24.0962C108.558 23.3993 108.407 22.9 108.105 22.5979C107.802 22.2959 107.326 22.1449 106.675 22.1449C105.977 22.1449 105.419 22.3308 105 22.7024C104.605 23.0741 104.407 23.5852 104.407 24.2358V32.8773C104.407 33.4813 104.267 33.9227 103.988 34.2016C103.733 34.4802 103.267 34.6197 102.593 34.6197H99.2092Z" fill="white"/>
<path d="M127.971 35.1423C124.715 35.1423 122.203 34.3872 120.435 32.8773C118.668 31.3675 117.784 29.1722 117.784 26.2915C117.784 24.5261 118.191 22.9697 119.005 21.6223C119.819 20.2749 120.994 19.2295 122.529 18.4862C124.087 17.7428 125.924 17.3711 128.04 17.3711C129.645 17.3711 130.994 17.5221 132.087 17.8241C133.203 18.1261 134.192 18.5907 135.052 19.2179C135.308 19.3805 135.436 19.5896 135.436 19.8451C135.436 20.031 135.343 20.2749 135.157 20.5769L133.726 23.0508C133.564 23.3762 133.366 23.5388 133.134 23.5388C132.994 23.5388 132.773 23.4459 132.471 23.26C131.843 22.8652 131.25 22.5747 130.692 22.3889C130.157 22.203 129.482 22.1101 128.668 22.1101C127.505 22.1101 126.564 22.4818 125.843 23.2252C125.145 23.9685 124.796 24.9906 124.796 26.2915C124.796 27.6157 125.156 28.6378 125.877 29.3578C126.599 30.0548 127.587 30.4033 128.843 30.4033C129.587 30.4033 130.261 30.2988 130.866 30.0896C131.471 29.8807 132.087 29.5903 132.715 29.2186C133.041 29.0327 133.273 28.9397 133.413 28.9397C133.622 28.9397 133.808 29.1023 133.971 29.4277L135.541 32.1108C135.657 32.343 135.715 32.5289 135.715 32.6682C135.715 32.8773 135.575 33.0748 135.296 33.2606C134.32 33.8879 133.25 34.3524 132.087 34.6545C130.947 34.9797 129.575 35.1423 127.971 35.1423Z" fill="white"/>
<path d="M144.56 35.1423C142.374 35.1423 140.618 34.4453 139.292 33.0517C137.99 31.6345 137.339 29.6484 137.339 27.0929C137.339 25.1416 137.781 23.4341 138.664 21.9707C139.571 20.5072 140.839 19.3805 142.467 18.5907C144.118 17.7776 146.013 17.3711 148.153 17.3711C149.92 17.3711 151.479 17.5686 152.827 17.9635C154.2 18.3352 155.456 18.8811 156.595 19.6012V33.5395C156.595 33.9809 156.514 34.2712 156.351 34.4105C156.188 34.55 155.863 34.6197 155.374 34.6197H151.816C151.56 34.6197 151.362 34.5849 151.223 34.515C151.083 34.4223 150.967 34.2827 150.874 34.0969L150.421 33.0517C149.746 33.7717 148.932 34.2945 147.979 34.6197C147.048 34.9681 145.909 35.1423 144.56 35.1423ZM147.176 30.4033C148.083 30.4033 148.793 30.1825 149.304 29.7414C149.816 29.3 150.072 28.6727 150.072 27.8595V22.4237C149.63 22.2146 149.072 22.1101 148.397 22.1101C147.165 22.1101 146.176 22.5399 145.432 23.3993C144.711 24.2588 144.35 25.4668 144.35 27.0233C144.35 29.2767 145.292 30.4033 147.176 30.4033Z" fill="white"/>
<path d="M178.509 33.2955C178.671 33.4814 178.753 33.6905 178.753 33.9228C178.753 34.1317 178.683 34.306 178.543 34.4453C178.404 34.5616 178.218 34.6197 177.985 34.6197H172.578C172.253 34.6197 172.008 34.5964 171.846 34.55C171.706 34.4802 171.555 34.3524 171.392 34.1668L166.648 27.7202V32.8774C166.648 33.4814 166.508 33.9228 166.229 34.2016C165.95 34.4802 165.473 34.6197 164.799 34.6197H161.415C160.741 34.6197 160.264 34.4802 159.985 34.2016C159.729 33.9228 159.601 33.4814 159.601 32.8774V12.7018C159.601 12.0978 159.741 11.6564 160.02 11.3777C160.299 11.0757 160.764 10.9247 161.415 10.9247H164.799C165.473 10.9247 165.95 11.0757 166.229 11.3777C166.508 11.6564 166.648 12.0978 166.648 12.7018V24.3751L171.253 18.3816C171.392 18.1958 171.543 18.068 171.706 17.9983C171.869 17.9286 172.113 17.8938 172.439 17.8938H177.846C178.078 17.8938 178.253 17.9635 178.369 18.1029C178.509 18.219 178.579 18.3816 178.579 18.5907C178.579 18.823 178.497 19.0321 178.334 19.2179L172.369 26.0478L178.509 33.2955Z" fill="white"/>
<path d="M189.836 35.1423C187.882 35.1423 186.138 34.8171 184.603 34.1667C183.091 33.5162 181.894 32.5404 181.01 31.2397C180.126 29.9388 179.684 28.3475 179.684 26.4659C179.684 23.5155 180.522 21.2622 182.196 19.7058C183.87 18.1493 186.278 17.3711 189.417 17.3711C192.487 17.3711 194.813 18.1377 196.394 19.6709C197.999 21.1809 198.801 23.2833 198.801 25.9779C198.801 27.1395 198.29 27.7202 197.266 27.7202H186.312C186.312 28.719 186.684 29.4858 187.429 30.02C188.196 30.5543 189.347 30.8214 190.882 30.8214C191.836 30.8214 192.627 30.7402 193.255 30.5776C193.906 30.3917 194.557 30.1247 195.208 29.7762C195.487 29.66 195.673 29.6018 195.766 29.6018C195.975 29.6018 196.15 29.7414 196.289 30.02L197.476 32.2501C197.592 32.4825 197.65 32.6566 197.65 32.7729C197.65 32.9818 197.51 33.1795 197.231 33.3651C196.278 33.9924 195.197 34.4453 193.987 34.7242C192.778 35.003 191.394 35.1423 189.836 35.1423ZM192.522 24.2706C192.522 23.3878 192.266 22.7024 191.755 22.2146C191.243 21.7268 190.475 21.4829 189.452 21.4829C188.429 21.4829 187.65 21.7384 187.115 22.2495C186.58 22.7374 186.312 23.4111 186.312 24.2706H192.522Z" fill="white"/>
<path d="M210.758 35.1423C208.804 35.1423 206.955 34.9449 205.211 34.5501C203.467 34.1317 202.06 33.551 200.99 32.8077C200.595 32.5522 200.397 32.2849 200.397 32.0063C200.397 31.8205 200.467 31.623 200.606 31.4139L202.316 28.696C202.502 28.4172 202.688 28.2779 202.874 28.2779C202.99 28.2779 203.188 28.3591 203.467 28.5217C204.327 29.0097 205.304 29.4045 206.397 29.7064C207.49 30.0085 208.572 30.1595 209.642 30.1595C210.735 30.1595 211.537 29.9969 212.049 29.6715C212.584 29.3464 212.851 28.8238 212.851 28.1035C212.851 27.4066 212.56 26.8607 211.979 26.4659C211.421 26.0709 210.362 25.5716 208.804 24.9676C206.456 24.0848 204.618 23.0975 203.292 22.0056C201.99 20.8905 201.339 19.3806 201.339 17.4757C201.339 15.1759 202.165 13.422 203.816 12.214C205.467 11.006 207.665 10.402 210.409 10.402C212.316 10.402 213.944 10.5763 215.293 10.9247C216.665 11.2499 217.828 11.761 218.781 12.4579C219.177 12.7599 219.374 13.0387 219.374 13.2942C219.374 13.4568 219.305 13.6427 219.165 13.8518L217.456 16.5697C217.246 16.8485 217.06 16.9878 216.898 16.9878C216.781 16.9878 216.584 16.9065 216.305 16.7439C214.956 15.8612 213.351 15.4198 211.491 15.4198C210.49 15.4198 209.723 15.5824 209.188 15.9076C208.653 16.2329 208.386 16.7672 208.386 17.5105C208.386 18.0216 208.525 18.4397 208.804 18.765C209.083 19.0902 209.456 19.3806 209.921 19.6361C210.409 19.8684 211.153 20.1704 212.153 20.5421L212.816 20.786C214.537 21.4597 215.886 22.1101 216.863 22.7375C217.863 23.3412 218.619 24.0963 219.13 25.0024C219.642 25.885 219.898 27 219.898 28.3475C219.898 30.4151 219.119 32.0645 217.56 33.2955C216.026 34.5268 213.758 35.1423 210.758 35.1423Z" fill="white"/>
<path d="M227.31 34.6197C226.961 34.6197 226.694 34.5616 226.507 34.4453C226.321 34.3293 226.182 34.0969 226.089 33.7484L221.589 18.6952C221.542 18.5559 221.519 18.4513 221.519 18.3816C221.519 18.0564 221.751 17.8938 222.217 17.8938H226.821C227.124 17.8938 227.344 17.9519 227.484 18.068C227.624 18.1609 227.717 18.3235 227.763 18.5558L229.646 26.4659L232.019 20.0891C232.136 19.8103 232.252 19.6244 232.367 19.5315C232.508 19.4154 232.741 19.3573 233.067 19.3573H235.263C235.589 19.3573 235.811 19.4154 235.926 19.5315C236.066 19.6244 236.193 19.8103 236.311 20.0891L238.647 26.4659L240.567 18.5558C240.635 18.3235 240.728 18.1609 240.845 18.068C240.961 17.9519 241.171 17.8938 241.472 17.8938H246.113C246.577 17.8938 246.811 18.0564 246.811 18.3816C246.811 18.4513 246.788 18.5559 246.74 18.6952L242.206 33.7484C242.113 34.0969 241.973 34.3293 241.787 34.4453C241.624 34.5616 241.368 34.6197 241.02 34.6197H237.601C237.275 34.6197 237.031 34.5616 236.868 34.4453C236.705 34.306 236.567 34.0738 236.449 33.7484L234.147 27.4414L231.844 33.7484C231.751 34.0738 231.611 34.306 231.425 34.4453C231.262 34.5616 231.02 34.6197 230.694 34.6197H227.31Z" fill="white"/>
<path d="M255.653 35.1423C253.466 35.1423 251.712 34.4453 250.385 33.0517C249.084 31.6345 248.432 29.6484 248.432 27.0929C248.432 25.1416 248.873 23.4341 249.758 21.9707C250.664 20.5072 251.932 19.3805 253.559 18.5907C255.212 17.7776 257.107 17.3711 259.246 17.3711C261.014 17.3711 262.572 17.5686 263.921 17.9635C265.293 18.3352 266.549 18.8811 267.688 19.6012V33.5395C267.688 33.9809 267.607 34.2712 267.444 34.4105C267.281 34.55 266.957 34.6197 266.468 34.6197H262.909C262.653 34.6197 262.456 34.5849 262.316 34.515C262.176 34.4223 262.06 34.2827 261.967 34.0969L261.514 33.0517C260.84 33.7717 260.025 34.2945 259.072 34.6197C258.141 34.9681 257.003 35.1423 255.653 35.1423ZM258.27 30.4033C259.176 30.4033 259.887 30.1825 260.398 29.7414C260.91 29.3 261.166 28.6727 261.166 27.8595V22.4237C260.722 22.2146 260.165 22.1101 259.491 22.1101C258.257 22.1101 257.27 22.5399 256.525 23.3993C255.805 24.2588 255.443 25.4668 255.443 27.0233C255.443 29.2767 256.387 30.4033 258.27 30.4033Z" fill="white"/>
<path d="M272.508 41.6585C271.833 41.6585 271.358 41.5192 271.077 41.2403C270.821 40.9615 270.694 40.5201 270.694 39.9161V19.9497C271.74 19.2063 273.056 18.5907 274.636 18.1029C276.218 17.615 277.868 17.3711 279.589 17.3711C286.614 17.3711 290.125 20.3446 290.125 26.2915C290.125 28.9863 289.38 31.135 287.893 32.7381C286.403 34.3409 284.3 35.1423 281.579 35.1423C280.812 35.1423 280.067 35.0493 279.345 34.8635C278.647 34.6778 278.065 34.4223 277.601 34.0969V39.9161C277.601 40.5201 277.461 40.9615 277.183 41.2403C276.904 41.5192 276.426 41.6585 275.752 41.6585H272.508ZM280.078 30.4381C281.079 30.4381 281.823 30.0665 282.31 29.323C282.822 28.5564 283.078 27.5343 283.078 26.2567C283.078 24.7468 282.777 23.6897 282.172 23.0857C281.59 22.4586 280.682 22.1449 279.451 22.1449C278.659 22.1449 278.031 22.2495 277.567 22.4586V27.999C277.567 28.7889 277.787 29.3929 278.228 29.811C278.672 30.2291 279.288 30.4381 280.078 30.4381Z" fill="white"/>
<path fill-rule="evenodd" clip-rule="evenodd" d="M22.2104 44.9111C15.6016 44.9062 10.2781 43.3221 6.55849 40.4769C2.79426 37.5976 0.797363 33.5114 0.797363 28.8877C0.797363 24.4327 2.78989 21.2204 5.04442 19.0489C6.81127 17.3472 8.76101 16.2573 10.1186 15.6304C9.81162 14.6893 9.4286 13.4572 9.0859 12.1846C8.62736 10.4818 8.17751 8.48383 8.17751 7.01975C8.17751 5.28682 8.55575 3.54647 9.57562 2.19416C10.6531 0.765398 12.2753 0 14.2268 0C15.752 0 17.0468 0.565107 18.0606 1.53997C19.0296 2.47181 19.6745 3.70931 20.1198 4.99934C20.9023 7.26614 21.2069 10.114 21.2923 12.956H23.1616C23.2472 10.114 23.5517 7.26614 24.3343 4.99934C24.7796 3.70931 25.4243 2.47181 26.3935 1.53997C27.4072 0.565107 28.7019 0 30.2271 0C32.1788 0 33.8008 0.765398 34.8784 2.19416C35.8983 3.54647 36.2766 5.28682 36.2766 7.01975C36.2766 8.48383 35.8265 10.4818 35.3681 12.1846C35.0253 13.4572 34.6423 14.6893 34.3353 15.6304C35.693 16.2573 37.6428 17.3472 39.4095 19.0489C41.6641 21.2204 43.6565 24.4327 43.6565 28.8877C43.6565 33.5114 41.6598 37.5976 37.8955 40.4769C34.1759 43.3221 28.8523 44.9062 22.2435 44.9111H22.2104Z" fill="#633001"/>
<path d="M14.2268 1.64813C11.3685 1.64813 10.0528 3.79985 10.0528 6.77562C10.0528 9.14092 11.5815 13.878 12.2088 15.722C12.3498 16.1368 12.1282 16.5912 11.7239 16.7521C9.43305 17.6636 2.67261 21.0008 2.67261 28.6438C2.67261 36.6947 9.54276 42.7652 22.2118 42.7749C22.2169 42.7749 22.2219 42.7747 22.227 42.7747C22.232 42.7747 22.237 42.7749 22.2421 42.7749C34.9111 42.7652 41.7812 36.6947 41.7812 28.6438C41.7812 21.0008 35.0209 17.6636 32.7301 16.7521C32.3258 16.5912 32.1041 16.1368 32.2452 15.722C32.8725 13.878 34.4013 9.14092 34.4013 6.77562C34.4013 3.79985 33.0855 1.64813 30.2272 1.64813C26.1128 1.64813 25.0871 7.52915 25.014 13.8409C25.0092 14.2623 24.6714 14.6042 24.254 14.6042H20.2C19.7824 14.6042 19.4448 14.2623 19.44 13.8409C19.3668 7.52915 18.3412 1.64813 14.2268 1.64813Z" fill="#D1884F"/>
<path d="M22.2421 40.1959C12.9335 40.1959 2.6887 35.1678 2.67265 28.6591C2.67263 28.6691 2.67261 28.6792 2.67261 28.6894C2.67261 36.7469 9.55369 42.8206 22.2421 42.8206C34.9305 42.8206 41.8115 36.7469 41.8115 28.6894C41.8115 28.6792 41.8115 28.6691 41.8115 28.6591C41.7955 35.1678 31.5506 40.1959 22.2421 40.1959Z" fill="#FEDC90"/>
<path d="M17.0699 26.6599C17.0699 28.8575 16.0407 30.0019 14.7712 30.0019C13.5016 30.0019 12.4724 28.8575 12.4724 26.6599C12.4724 24.4624 13.5016 23.3179 14.7712 23.3179C16.0407 23.3179 17.0699 24.4624 17.0699 26.6599Z" fill="#633001"/>
<path d="M32.0117 26.6599C32.0117 28.8575 30.9826 30.0019 29.713 30.0019C28.4435 30.0019 27.4143 28.8575 27.4143 26.6599C27.4143 24.4624 28.4435 23.3179 29.713 23.3179C30.9826 23.3179 32.0117 24.4624 32.0117 26.6599Z" fill="#633001"/>
</g>
<defs>
<clipPath id="clip0_69_22">
<rect width="290" height="45" fill="white" transform="translate(0.125)"/>
</clipPath>
</defs>
</svg>
