<svg width="225" height="46" viewBox="0 0 225 46" fill="none" xmlns="http://www.w3.org/2000/svg">
<path d="M10.3219 22.6461L5.21508 27.7485L0.112671 22.6461L5.21508 17.5437L10.3219 22.6461ZM22.7027 10.2564L31.4466 19.0047L36.549 13.9023L22.7027 0.0560303L8.8565 13.9023L13.9589 19.0047L22.7027 10.2564ZM40.1948 17.5437L35.0924 22.6461L40.1948 27.7485L45.2928 22.6461L40.1948 17.5437ZM22.7027 35.0358L13.9589 26.2919L8.8565 31.3899L22.7027 45.2362L36.549 31.3899L31.4466 26.2919L22.7027 35.0358ZM22.7027 27.7485L27.8052 22.6461L22.7027 17.5437L17.6003 22.6461L22.7027 27.7485ZM76.5517 28.2385V28.1678C76.5517 24.8398 74.7862 23.1758 71.9127 22.0811C73.6783 21.088 75.1702 19.5299 75.1702 16.736V16.6653C75.1702 12.7723 72.054 10.2564 66.9913 10.2564H55.4976V35.0358H67.2826C72.875 35.0358 76.5605 32.7715 76.5605 28.2385H76.5517ZM69.7544 17.6452C69.7544 19.4858 68.2316 20.267 65.826 20.267H60.8075V15.0366H66.188C68.4876 15.0366 69.7632 15.9547 69.7632 17.5834L69.7544 17.6452ZM71.1359 27.5587C71.1359 29.3993 69.6837 30.2468 67.2738 30.2468H60.8075V24.8045H67.1061C69.9044 24.8045 71.1447 25.8329 71.1447 27.4969L71.1359 27.5587ZM88.0056 35.0358V10.2564H82.5369V35.0358H88.0056ZM117.309 35.0358V10.2564H111.911V25.5151L100.303 10.2564H95.2752V35.0358H100.656V19.2828L112.653 35.0358H117.309ZM147.504 35.0358L136.867 10.0799H131.84L121.224 35.0358H126.781L129.054 29.4787H139.533L141.797 35.0358H147.504ZM137.595 24.6632H130.992L134.285 16.63L137.595 24.6632ZM173.489 35.0358V10.2564H168.09V25.5151L156.478 10.2564H151.455V35.0358H156.831V19.2828L168.832 35.0358H173.489ZM201.627 31.0368L198.162 27.5322C196.216 29.2978 194.481 30.4321 191.647 30.4321C187.401 30.4321 184.461 26.9011 184.461 22.6461V22.5755C184.461 18.3294 187.472 14.8601 191.647 14.8601C194.123 14.8601 196.061 15.9194 197.985 17.654L201.442 13.6551C199.142 11.3908 196.348 9.8327 191.674 9.8327C184.064 9.8327 178.754 15.6016 178.754 22.6329V22.7035C178.754 29.8186 184.17 35.4463 191.462 35.4463C196.233 35.4595 199.062 33.7602 201.609 31.0368H201.627ZM224.888 35.0358V30.1805H211.417V24.9678H223.1V20.1126H211.417V15.1073H224.694V10.252H206.001V35.0314L224.888 35.0358Z" fill="#FFE600"/>
</svg>
