<svg width="188" height="45" viewBox="0 0 188 45" fill="none" xmlns="http://www.w3.org/2000/svg">
<g clip-path="url(#clip0_69_56)">
<path d="M63.2995 21.836V15.0807H66.8044C69.0231 15.0807 70.3737 16.3786 70.3737 18.475C70.3737 20.5049 69.0231 21.836 66.8044 21.836H63.2995ZM67.3511 25.796C71.8529 25.796 74.8432 22.7344 74.8432 18.4417C74.8432 14.1822 71.8529 11.0874 67.3511 11.0874H58.8298V34.681H63.2673V25.796H67.3511Z" fill="white"/>
<path d="M82.0657 25.0638C82.1622 23.2669 83.2233 21.8692 85.024 21.8692C87.0819 21.8692 87.9501 23.3002 87.9501 25.1304V34.681H92.2268V24.365C92.2268 20.7711 90.3618 17.876 86.3424 17.876C84.831 17.876 83.0946 18.4085 82.0657 19.673V10.5883H77.7891V34.681H82.0657V25.0638Z" fill="white"/>
<path d="M95.6028 30.2218C95.6028 32.7842 97.6608 35.1468 101.037 35.1468C103.384 35.1468 104.896 34.0155 105.7 32.7176C105.7 33.3499 105.764 34.2484 105.86 34.6809H109.783C109.687 34.1153 109.59 32.9506 109.59 32.0854V24.0322C109.59 20.7378 107.725 17.8094 102.709 17.8094C98.4646 17.8094 96.1816 20.6379 95.9243 23.2003L99.7187 24.0322C99.8474 22.6014 100.876 21.3701 102.741 21.3701C104.542 21.3701 105.41 22.3351 105.41 23.4998C105.41 24.0656 105.121 24.5315 104.22 24.6645L100.33 25.2635C97.6929 25.6628 95.6028 27.2934 95.6028 30.2218ZM101.937 31.8524C100.555 31.8524 99.8795 30.9207 99.8795 29.9556C99.8795 28.691 100.748 28.0588 101.841 27.8924L105.41 27.3268V28.0588C105.41 30.9539 103.738 31.8524 101.937 31.8524Z" fill="white"/>
<path d="M118.178 25.2635C118.178 23.3668 119.271 21.8692 121.136 21.8692C123.194 21.8692 124.062 23.3002 124.062 25.1304V34.681H128.339V24.365C128.339 20.7711 126.538 17.876 122.615 17.876C120.911 17.876 119.014 18.6414 118.049 20.3385V18.3085H113.901V34.681H118.178V25.2635Z" fill="white"/>
<path d="M137.954 13.4167H134.094V15.7129C134.094 17.1772 133.323 18.3085 131.651 18.3085H130.847V22.2353H133.709V29.8558C133.709 33.0172 135.637 34.9139 138.725 34.9139C139.979 34.9139 140.751 34.681 141.137 34.5146V30.8541C140.912 30.9207 140.332 30.9873 139.818 30.9873C138.596 30.9873 137.954 30.5214 137.954 29.0904V22.2353H141.137V18.3085H137.954V13.4167Z" fill="white"/>
<path d="M151.719 31.1536C149.629 31.1536 147.699 29.5562 147.699 26.4948C147.699 23.4 149.629 21.836 151.719 21.836C153.808 21.836 155.738 23.4 155.738 26.4948C155.738 29.5896 153.808 31.1536 151.719 31.1536ZM151.719 17.8094C146.992 17.8094 143.422 21.4367 143.422 26.4948C143.422 31.5197 146.992 35.1802 151.719 35.1802C156.446 35.1802 160.015 31.5197 160.015 26.4948C160.015 21.4367 156.446 17.8094 151.719 17.8094Z" fill="white"/>
<path d="M167.667 34.681V25.0972C167.667 23.3002 168.76 21.8692 170.626 21.8692C172.555 21.8692 173.423 23.2003 173.423 24.964V34.681H177.668V25.0972C177.668 23.3334 178.761 21.8692 180.594 21.8692C182.556 21.8692 183.391 23.2003 183.391 24.964V34.681H187.54V24.0656C187.54 19.673 184.741 17.8427 181.815 17.8427C179.725 17.8427 178.054 18.5748 176.799 20.5715C175.995 18.8078 174.259 17.8427 172.104 17.8427C170.369 17.8427 168.343 18.708 167.475 20.3052V18.3085H163.39V34.681H167.667Z" fill="white"/>
<path d="M21.7415 45C33.749 45 43.483 34.9264 43.483 22.5C43.483 10.0736 33.749 0 21.7415 0C9.734 0 0 10.0736 0 22.5C0 34.9264 9.734 45 21.7415 45Z" fill="url(#paint0_linear_69_56)"/>
<path d="M37.306 22.7741H33.4732C33.4732 14.6908 27.1192 8.13831 19.2805 8.13831C11.5389 8.13831 5.24493 14.5304 5.09088 22.4753C4.93152 30.6878 12.4031 37.8192 20.368 37.8192H21.3699C28.3919 37.8192 37.8035 32.1507 39.274 25.244C39.5455 23.9709 38.5703 22.7741 37.306 22.7741ZM13.5849 23.1343C13.5849 24.2152 12.7275 25.0993 11.6793 25.0993C10.631 25.0993 9.77373 24.2148 9.77373 23.1343V19.9553C9.77373 18.8743 10.631 17.9902 11.6793 17.9902C12.7275 17.9902 13.5849 18.8743 13.5849 19.9553V23.1343ZM20.2017 23.1343C20.2017 24.2152 19.3445 25.0993 18.2963 25.0993C17.2479 25.0993 16.3907 24.2148 16.3907 23.1343V19.9553C16.3907 18.8743 17.2483 17.9902 18.2963 17.9902C19.3445 17.9902 20.2017 18.8743 20.2017 19.9553V23.1343Z" fill="url(#paint1_linear_69_56)"/>
</g>
<defs>
<linearGradient id="paint0_linear_69_56" x1="21.7415" y1="0" x2="21.7415" y2="45" gradientUnits="userSpaceOnUse">
<stop stop-color="#534BB1"/>
<stop offset="1" stop-color="#551BF9"/>
</linearGradient>
<linearGradient id="paint1_linear_69_56" x1="22.204" y1="8.13831" x2="22.204" y2="37.8192" gradientUnits="userSpaceOnUse">
<stop stop-color="white"/>
<stop offset="1" stop-color="white" stop-opacity="0.82"/>
</linearGradient>
<clipPath id="clip0_69_56">
<rect width="188" height="45" fill="white"/>
</clipPath>
</defs>
</svg>
