<svg width="45" height="45" viewBox="0 0 45 45" fill="none" xmlns="http://www.w3.org/2000/svg">
<g clip-path="url(#clip0_69_52)">
<path d="M36 0H9C4.02944 0 0 4.02944 0 9V36C0 40.9706 4.02944 45 9 45H36C40.9706 45 45 40.9706 45 36V9C45 4.02944 40.9706 0 36 0Z" fill="#FEDA03"/>
<path d="M31.0509 22.3353C32.4684 21.967 33.7295 20.9068 33.7295 18.775C33.7295 15.226 30.7161 14.4 26.8545 14.4H11.4751V30.3822H17.9482V24.9581H25.6268C26.8099 24.9581 27.5018 25.4268 27.5018 26.5876V30.3822H33.9751V26.3867C33.9751 24.2104 32.7474 22.8375 31.0509 22.3353ZM25.7384 20.6501H17.9482V19.0876H25.7384C26.5867 19.0876 27.1 19.1992 27.1 19.8689C27.1 20.5385 26.5867 20.6501 25.7384 20.6501Z" fill="black"/>
</g>
<defs>
<clipPath id="clip0_69_52">
<rect width="45" height="45" fill="white"/>
</clipPath>
</defs>
</svg>
