<svg width="303" height="45" viewBox="0 0 303 45" fill="none" xmlns="http://www.w3.org/2000/svg">
<g clip-path="url(#clip0_69_39)">
<mask id="mask0_69_39" style="mask-type:luminance" maskUnits="userSpaceOnUse" x="0" y="0" width="303" height="45">
<path d="M302.125 0H0.125V45H302.125V0Z" fill="white"/>
</mask>
<g mask="url(#mask0_69_39)">
<path d="M50.8619 35.4796L42.5779 44.3859C42.3987 44.5793 42.1818 44.7337 41.9405 44.8393C41.6992 44.945 41.4387 44.9997 41.1754 44.9999H1.90609C1.7188 44.9998 1.5356 44.945 1.37893 44.8421C1.22226 44.7392 1.09891 44.5927 1.024 44.4206C0.949082 44.2484 0.925847 44.0582 0.957141 43.873C0.988435 43.6879 1.07289 43.5158 1.20018 43.3781L9.47479 34.4718C9.65398 34.2784 9.87095 34.124 10.1123 34.0183C10.3535 33.9127 10.614 33.858 10.8773 33.8577H50.1466C50.3355 33.8539 50.5216 33.9061 50.681 34.0079C50.8404 34.1097 50.9666 34.2565 51.0428 34.4299C51.1195 34.6033 51.1428 34.7954 51.1106 34.9822C51.0783 35.169 50.9918 35.3421 50.8619 35.4796ZM42.5779 17.5406C42.3981 17.348 42.1809 17.1943 41.9398 17.0886C41.6987 16.9831 41.4385 16.9279 41.1754 16.9265H1.90609C1.7188 16.9266 1.5356 16.9815 1.37893 17.0844C1.22226 17.1873 1.09891 17.3338 1.024 17.5059C0.949082 17.678 0.925847 17.8683 0.957141 18.0535C0.988435 18.2386 1.07289 18.4107 1.20018 18.5484L9.47479 27.4594C9.65464 27.6519 9.87179 27.8057 10.1129 27.9113C10.3541 28.0168 10.6142 28.072 10.8773 28.0734H50.1466C50.3336 28.0724 50.5159 28.0168 50.6721 27.9136C50.8282 27.8104 50.9507 27.6638 51.025 27.4919C51.0994 27.32 51.1223 27.13 51.0905 26.9453C51.0592 26.7605 50.975 26.589 50.8479 26.4515L42.5779 17.5406ZM1.90609 11.1421H41.1754C41.4387 11.1419 41.6992 11.0872 41.9405 10.9815C42.1818 10.8759 42.3987 10.7215 42.5779 10.5281L50.8619 1.62184C50.9918 1.48427 51.0783 1.3112 51.1106 1.12441C51.1428 0.937616 51.1195 0.745443 51.0428 0.572071C50.9666 0.398699 50.8404 0.251876 50.681 0.150076C50.5216 0.0482758 50.3355 -0.00395332 50.1466 -3.9202e-05H10.8773C10.614 0.000238692 10.3535 0.0549068 10.1123 0.160556C9.87095 0.266206 9.65398 0.42057 9.47479 0.614024L1.20018 9.52025C1.07289 9.65802 0.988435 9.83005 0.957141 10.0152C0.925847 10.2004 0.949082 10.3906 1.024 10.5627C1.09891 10.7349 1.22226 10.8814 1.37893 10.9843C1.5356 11.0872 1.7188 11.142 1.90609 11.1421Z" fill="url(#paint0_linear_69_39)"/>
<path d="M98.7378 19.0314H77.7287V12.0939H104.198V5.15635H77.6586C76.7516 5.15143 75.8531 5.32562 75.0135 5.66898C74.1739 6.01238 73.4095 6.51821 72.7653 7.15763C72.1207 7.79705 71.6078 8.55755 71.2563 9.39563C70.9047 10.2338 70.721 11.1331 70.7163 12.0423V19.0735C70.72 19.9835 70.9024 20.8839 71.2535 21.7231C71.6045 22.5623 72.1169 23.3238 72.7616 23.9642C73.4067 24.6047 74.1711 25.1114 75.0112 25.4553C75.8512 25.7993 76.7512 25.9738 77.6586 25.9688H98.6957V32.9064H71.2165V39.8438H98.7378C99.6447 39.8488 100.543 39.6746 101.383 39.3312C102.222 38.9878 102.987 38.482 103.631 37.8426C104.276 37.2031 104.789 36.4427 105.14 35.6046C105.492 34.7664 105.675 33.8671 105.68 32.9579V25.9267C105.676 25.0167 105.494 24.1164 105.143 23.2771C104.792 22.4379 104.279 21.6764 103.635 21.036C102.99 20.3956 102.225 19.8889 101.385 19.5449C100.545 19.2009 99.6452 19.0264 98.7378 19.0314Z" fill="white"/>
<path d="M139.438 5.15623H118.349C117.441 5.14883 116.54 5.32119 115.698 5.66347C114.857 6.00575 114.09 6.51116 113.444 7.15086C112.797 7.79052 112.282 8.55181 111.93 9.39116C111.577 10.2305 111.393 11.1314 111.388 12.0422V32.9578C111.393 33.8686 111.577 34.7695 111.93 35.6088C112.282 36.4482 112.797 37.2095 113.444 37.8491C114.09 38.4888 114.857 38.9942 115.698 39.3365C116.54 39.6788 117.441 39.8511 118.349 39.8437H139.438C140.345 39.8487 141.243 39.6745 142.083 39.3311C142.922 38.9877 143.687 38.4819 144.331 37.8425C144.976 37.203 145.488 36.4425 145.84 35.6045C146.192 34.7663 146.375 33.867 146.38 32.9578V12.0422C146.375 11.133 146.192 10.2336 145.84 9.39552C145.488 8.55744 144.976 7.79694 144.331 7.15752C143.687 6.51809 142.922 6.01227 142.083 5.66886C141.243 5.3255 140.345 5.15131 139.438 5.15623ZM139.386 32.9062H118.401V12.0937H139.377L139.386 32.9062Z" fill="white"/>
<path d="M213.301 5.15627H192.732C191.825 5.15135 190.926 5.32554 190.087 5.6689C189.247 6.01231 188.483 6.51813 187.839 7.15756C187.194 7.79698 186.681 8.55748 186.33 9.39556C185.978 10.2337 185.794 11.133 185.79 12.0422V39.8438H192.802V28.4485H213.278V39.8438H220.29V12.0422C220.286 11.129 220.101 10.2259 219.746 9.38463C219.391 8.54346 218.875 7.7809 218.225 7.14082C217.576 6.50079 216.806 5.99595 215.961 5.65535C215.116 5.31476 214.212 5.14516 213.301 5.15627ZM213.25 21.511H192.774V12.0938H213.25V21.511Z" fill="white"/>
<path d="M295.183 5.15635H274.613C273.706 5.15143 272.808 5.32562 271.968 5.66898C271.128 6.01238 270.365 6.51821 269.72 7.15763C269.075 7.79705 268.562 8.55755 268.211 9.39563C267.859 10.2338 267.676 11.1331 267.671 12.0423V39.8438H274.683V28.4485H295.113V39.8438H302.125V12.0423C302.12 11.1331 301.937 10.2338 301.585 9.39563C301.234 8.55755 300.721 7.79705 300.076 7.15763C299.431 6.51821 298.668 6.01238 297.828 5.66898C296.988 5.32562 296.09 5.15143 295.183 5.15635ZM295.113 21.511H274.637V12.0939H295.113V21.511Z" fill="white"/>
<path d="M254.441 32.9063H251.636L241.608 8.06256C241.264 7.20545 240.673 6.47087 239.91 5.95309C239.147 5.43526 238.247 5.15781 237.326 5.15631H231.104C230.499 5.15322 229.899 5.26961 229.34 5.49878C228.78 5.728 228.271 6.0655 227.84 6.49206C227.411 6.91867 227.069 7.4259 226.835 7.98494C226.601 8.54392 226.479 9.14373 226.475 9.75006V39.8438H233.488V12.0938H236.293L246.316 36.9376C246.665 37.793 247.261 38.5246 248.027 39.0389C248.793 39.5533 249.695 39.8269 250.617 39.8251H256.839C257.444 39.8282 258.043 39.7118 258.603 39.4826C259.163 39.2534 259.672 38.9159 260.102 38.4893C260.532 38.0627 260.873 37.5555 261.108 36.9965C261.342 36.4375 261.464 35.8377 261.467 35.2313V5.15631H254.441V32.9063Z" fill="white"/>
<path d="M159.587 5.15625H152.574V32.9578C152.579 33.869 152.764 34.7703 153.117 35.6099C153.469 36.4496 153.984 37.2111 154.631 37.8508C155.278 38.4906 156.045 38.9959 156.887 39.3379C157.73 39.6799 158.631 39.8518 159.54 39.8437H180.577V32.9062H159.587V5.15625Z" fill="white"/>
</g>
</g>
<defs>
<linearGradient id="paint0_linear_69_39" x1="5.17854" y1="46.0734" x2="46.4791" y2="-0.363302" gradientUnits="userSpaceOnUse">
<stop offset="0.08" stop-color="#9945FF"/>
<stop offset="0.3" stop-color="#8752F3"/>
<stop offset="0.5" stop-color="#5497D5"/>
<stop offset="0.6" stop-color="#43B4CA"/>
<stop offset="0.72" stop-color="#28E0B9"/>
<stop offset="0.97" stop-color="#19FB9B"/>
</linearGradient>
<clipPath id="clip0_69_39">
<rect width="302" height="45" fill="white" transform="translate(0.125)"/>
</clipPath>
</defs>
</svg>
