<svg width="263" height="45" viewBox="0 0 263 45" fill="none" xmlns="http://www.w3.org/2000/svg">
<path d="M38.735 26.9097C37.9491 27.39 37.0322 27.4773 36.3336 27.0844C35.4604 26.5604 34.9365 25.3816 34.9365 23.7662V18.8325C34.9365 16.4748 34.0196 14.772 32.4478 14.3354C29.7845 13.5495 27.7761 16.8241 27.0339 18.0466L22.3186 25.5999V16.3002C22.2749 14.1608 21.5763 12.8946 20.2665 12.5017C19.3933 12.2397 18.0835 12.3707 16.8173 14.2918L6.29508 31.1448C4.89793 28.4815 4.1557 25.5126 4.1557 22.5C4.1557 12.3271 12.3203 4.07517 22.3186 4.07517C32.3169 4.07517 40.4814 12.3271 40.4814 22.5V22.5437V22.5873C40.5687 24.5521 39.9575 26.1238 38.735 26.9097ZM44.4982 22.5V22.4563V22.4127C44.4545 10.0567 34.4999 -0.0289307 22.3186 -0.0289307C10.0936 -0.0289307 0.138916 10.0567 0.138916 22.5C0.138916 34.8996 10.0936 45.0289 22.3186 45.0289C27.9508 45.0289 33.2774 42.8895 37.3815 39.0037C38.2111 38.2178 38.2547 36.9517 37.4688 36.1221C36.7266 35.2926 35.4604 35.2489 34.6309 35.9912C34.6309 35.9912 34.6309 35.9912 34.5872 36.0348C31.269 39.1784 26.8156 40.9685 22.2312 40.9685C16.861 40.9685 12.0583 38.6108 8.74008 34.856L18.2145 19.6621V26.6914C18.2145 30.0533 19.5243 31.1448 20.6158 31.4504C21.7073 31.7561 23.3664 31.5378 25.1565 28.6998L30.3521 20.2733C30.5268 20.0113 30.6578 19.7494 30.8324 19.5747V23.8535C30.8324 26.9971 32.0986 29.5294 34.2816 30.7519C36.2463 31.887 38.735 31.7561 40.787 30.4899C43.3194 28.8308 44.6729 25.9492 44.4982 22.5ZM75.41 14.8157C75.9339 15.1213 76.4142 15.8636 76.4142 16.5185C76.4142 17.5663 75.541 18.4396 74.5368 18.4396C74.2748 18.4396 74.0565 18.3522 73.8382 18.3086C72.6594 17.4354 71.1749 16.8678 69.6031 16.8678C65.892 16.8678 63.3596 19.8804 63.3596 23.6352C63.3596 27.39 65.9356 30.3589 69.6031 30.3589C71.4369 30.3589 73.096 29.6167 74.3185 28.4379C74.6241 28.2196 75.0171 28.0886 75.41 28.0886C76.4142 28.0886 77.2001 28.8745 77.2001 29.8787C77.2001 30.5336 76.8071 31.1012 76.3269 31.4068C74.5368 32.9349 72.1354 33.9391 69.6468 33.9391C63.9709 33.9391 59.3428 29.2674 59.3428 23.5042C59.3428 17.741 63.9709 13.0693 69.6468 13.0693C71.7425 13.0256 73.7509 13.6805 75.41 14.8157ZM85.8012 19.1818C89.687 19.1818 92.9179 22.4563 92.9179 26.5168C92.9179 30.5336 89.6434 33.9828 85.8012 33.9828C81.7408 33.9828 78.3789 30.5772 78.3789 26.5168C78.3789 22.4563 81.7408 19.1818 85.8012 19.1818ZM85.7576 30.3589C87.4604 30.3589 88.9012 28.7435 88.9012 26.5604C88.9012 24.3774 87.4604 22.9803 85.7576 22.9803C83.9238 22.9803 82.3957 24.3337 82.3957 26.5604C82.3957 28.6998 83.9238 30.3589 85.7576 30.3589ZM95.3629 31.7124V21.4085C95.3629 20.2733 96.2362 19.3564 97.3713 19.3564C98.4628 19.3564 99.3797 20.2733 99.3797 21.4085V31.7124C99.3797 32.8476 98.4628 33.7645 97.3713 33.7645C96.2798 33.7645 95.3629 32.8039 95.3629 31.7124ZM95.0573 15.4706C95.0573 14.1171 96.1052 13.0693 97.3713 13.0693C98.6812 13.0693 99.729 14.1608 99.729 15.4706C99.729 16.7804 98.6812 17.8283 97.3713 17.8283C96.0615 17.7846 95.0573 16.7368 95.0573 15.4706ZM107.064 26.1238V31.7124C107.064 32.8476 106.147 33.7645 105.056 33.7645C103.964 33.7645 103.047 32.8476 103.047 31.7124V20.9282C103.047 20.055 103.746 19.3564 104.619 19.3564C105.492 19.3564 106.147 20.0987 106.147 20.9282C107.763 19.4001 109.203 19.1818 110.557 19.1818C114.574 19.1818 116.364 22.1944 116.364 25.6436V31.7124C116.364 32.8476 115.447 33.7645 114.355 33.7645C113.264 33.7645 112.347 32.8476 112.347 31.7124V26.1238C112.347 24.3774 112.129 22.8929 109.596 22.8929C107.806 22.8929 107.064 24.3774 107.064 26.1238ZM129.375 28.2632C128.894 28.2632 128.589 28.0449 128.327 27.7393L123.655 22.6746V31.7124C123.655 32.8476 122.738 33.7645 121.647 33.7645C120.555 33.7645 119.638 32.8476 119.638 31.7124V13.8115C119.769 13.5059 120.075 13.2876 120.381 13.2876C120.73 13.2876 121.035 13.5932 121.254 13.8115L128.72 22.1944C128.938 22.4563 129.2 22.5873 129.375 22.5873C129.506 22.5873 129.811 22.4563 130.03 22.1944L137.496 13.8115C137.714 13.5932 137.976 13.2876 138.369 13.2876C138.718 13.2876 139.024 13.5059 139.111 13.8115V31.7124C139.111 32.8476 138.238 33.7645 137.103 33.7645C136.011 33.7645 135.094 32.8476 135.094 31.7124V22.6746L130.422 27.7393C130.073 28.0449 129.768 28.2632 129.375 28.2632ZM148.673 30.3589C150.463 30.3589 151.991 28.7435 151.991 26.5604C151.991 24.3774 150.419 22.9366 148.673 22.9366C146.926 22.9366 145.485 24.4211 145.485 26.5604C145.485 28.6562 146.883 30.3589 148.673 30.3589ZM152.951 32.1927L152.864 31.7124C152.078 33.2405 149.59 33.9391 148.018 33.9391C144.263 33.9391 141.469 30.5336 141.469 26.4731C141.469 22.4563 144.307 19.1381 148.236 19.1381C148.891 19.1381 151.161 19.3128 152.908 21.3648L152.995 20.8845C152.995 20.0113 153.65 19.3128 154.523 19.3128C155.396 19.3128 156.095 20.055 156.095 20.8845V32.149C156.095 33.0222 155.396 33.7208 154.523 33.7208C153.606 33.7645 152.951 33.0222 152.951 32.1927ZM167.141 22.8929H166.705C164.172 23.0239 163.692 24.4647 163.692 26.1238V31.7124C163.692 32.8476 162.775 33.7645 161.684 33.7645C160.592 33.7645 159.675 32.8476 159.675 31.7124V20.9282C159.675 20.055 160.374 19.3564 161.247 19.3564C162.12 19.3564 162.775 20.0987 162.775 20.9282C164.26 19.5311 165.482 19.2254 166.705 19.1818H167.097C168.058 19.1818 168.931 20.0113 168.931 21.0592C168.975 22.0197 168.102 22.8929 167.141 22.8929ZM182.641 30.7519C182.815 31.0575 182.946 31.3631 182.946 31.7124C182.946 32.7603 181.986 33.7208 180.938 33.7208C180.239 33.7208 179.628 33.1969 179.148 32.5856L174.52 27.2154V31.6687C174.52 32.8039 173.603 33.7208 172.511 33.7208C171.42 33.7208 170.503 32.8039 170.503 31.6687V15.296C170.503 14.1608 171.376 13.2439 172.511 13.2439C173.647 13.2439 174.52 14.1608 174.52 15.296V25.5126L179.148 20.4043C179.628 19.8804 180.196 19.3128 180.894 19.3128C181.898 19.3128 182.815 20.2296 182.815 21.2775C182.815 21.5831 182.728 21.9324 182.553 22.1944L178.886 26.2112L182.641 30.7519ZM190.5 22.9366C189.408 22.9366 187.618 23.5042 187.618 25.207H193.425C193.381 23.5042 191.547 22.9366 190.5 22.9366ZM195.739 27.7829H187.618C187.618 30.1843 189.932 30.5772 190.936 30.5772C191.678 30.5772 192.726 30.4462 193.556 30.0533C193.818 29.8787 194.211 29.7477 194.604 29.7477C195.477 29.7477 196.219 30.4899 196.219 31.4068C196.219 32.018 195.826 32.542 195.346 32.8476C194.123 33.7645 192.508 33.9828 190.98 33.9828C186.919 33.9828 183.558 31.7997 183.558 26.6914C183.558 22.6746 185.61 19.1818 190.412 19.1818C194.298 19.1818 197.223 21.7141 197.311 26.2112C197.311 27.0407 196.612 27.7829 195.739 27.7829ZM206.916 33.9391H205.825C202.768 33.9391 200.978 32.5856 200.978 27.8266V22.8929H199.93C198.97 22.8929 198.14 22.0197 198.14 21.0592C198.14 20.0113 199.013 19.1818 199.93 19.1818H200.978V15.3833C200.978 14.2481 201.851 13.3313 202.987 13.3313C204.078 13.3313 204.995 14.2481 204.995 15.3833V19.1818H206.654C207.615 19.1818 208.444 20.0113 208.444 21.0592C208.444 22.0197 207.571 22.8929 206.654 22.8929H204.995V27.0407C204.995 29.7913 205.126 30.3589 206.348 30.3589H206.916C207.877 30.3589 208.706 31.1448 208.706 32.149C208.706 33.1096 207.877 33.9391 206.916 33.9391ZM226.345 14.8157C226.869 15.1213 227.349 15.8636 227.349 16.5185C227.349 17.5663 226.476 18.4396 225.472 18.4396C225.21 18.4396 224.992 18.3522 224.773 18.3086C223.594 17.4354 222.11 16.8678 220.538 16.8678C216.827 16.8678 214.295 19.8804 214.295 23.6352C214.295 27.39 216.871 30.3589 220.538 30.3589C222.372 30.3589 224.031 29.6167 225.254 28.4379C225.559 28.2196 225.952 28.0886 226.345 28.0886C227.349 28.0886 228.135 28.8745 228.135 29.8787C228.135 30.5336 227.742 31.1012 227.262 31.4068C225.472 32.9349 223.071 33.9391 220.582 33.9391C214.906 33.9391 210.278 29.2674 210.278 23.5042C210.278 17.741 214.906 13.0693 220.582 13.0693C222.678 13.0256 224.73 13.6805 226.345 14.8157ZM236.518 30.3589C238.308 30.3589 239.836 28.7435 239.836 26.5604C239.836 24.3774 238.264 22.9366 236.518 22.9366C234.728 22.9366 233.331 24.4211 233.331 26.5604C233.331 28.6562 234.772 30.3589 236.518 30.3589ZM240.797 32.1927L240.709 31.7124C239.924 33.2405 237.435 33.9391 235.863 33.9391C232.108 33.9391 229.314 30.5336 229.314 26.4731C229.314 22.4563 232.152 19.1381 236.081 19.1381C236.736 19.1381 239.007 19.3128 240.753 21.3648L240.84 20.8845C240.84 20.0113 241.495 19.3128 242.369 19.3128C243.242 19.3128 243.94 20.055 243.94 20.8845V32.149C243.94 33.0222 243.242 33.7208 242.369 33.7208C241.452 33.7645 240.797 33.0222 240.797 32.1927ZM254.899 30.3589C256.689 30.3589 258.086 28.6562 258.086 26.5604C258.086 24.3774 256.646 22.9366 254.899 22.9366C253.109 22.9366 251.581 24.3774 251.581 26.5604C251.581 28.7435 253.109 30.3589 254.899 30.3589ZM251.581 32.7603V37.8686C251.581 39.0038 250.664 39.9206 249.573 39.9206C248.481 39.9206 247.564 39.0038 247.564 37.8686V20.9282C247.564 20.055 248.263 19.3564 249.136 19.3564C250.009 19.3564 250.664 20.0987 250.664 21.1029C252.149 19.5747 253.982 19.1818 255.379 19.1818C259.265 19.1818 262.147 22.4563 262.147 26.5168C262.147 30.5336 259.396 33.9828 255.598 33.9828C254.419 33.9391 252.672 33.5898 251.581 32.7603Z" fill="white"/>
</svg>
